<svg xmlns="http://www.w3.org/2000/svg" viewBox="0 0 1280 400"><defs><linearGradient id="bg" x1="0" y1="0" x2="1" y2="1"><stop offset="0" stop-color="#2E2443"/><stop offset="1" stop-color="#18131F"/></linearGradient><radialGradient id="sol" cx=".82" cy=".25" r=".5"><stop offset="0" stop-color="#F2B544" stop-opacity=".22"/><stop offset="1" stop-color="#F2B544" stop-opacity="0"/></radialGradient></defs><rect width="1280" height="400" rx="28" fill="url(#bg)"/><rect width="1280" height="400" rx="28" fill="url(#sol)"/><path d="M0,330 C220,300 380,350 620,318 C860,286 1040,330 1280,296 V400 H0 Z" fill="#E07A5F" opacity=".10"/><path d="M0,356 C260,336 420,372 680,346 C900,324 1080,356 1280,336 V400 H0 Z" fill="#8FB9A8" opacity=".10"/><g transform="translate(96,92) scale(2)"><defs><linearGradient id="bc" x1="0" y1="0" x2="0" y2="1"><stop offset="0" stop-color="#2E2443"/><stop offset="1" stop-color="#18131F"/></linearGradient><radialGradient id="bh"><stop offset="0" stop-color="#F2B544" stop-opacity=".35"/><stop offset="1" stop-color="#F2B544" stop-opacity="0"/></radialGradient></defs><rect width="108" height="108" rx="26" fill="url(#bc)"/><circle cx="24" cy="30" r="1.3" fill="#F4EBDD" opacity=".55"/><circle cx="33" cy="22" r="0.9" fill="#F4EBDD" opacity=".55"/><circle cx="88" cy="26" r="1.1" fill="#F4EBDD" opacity=".55"/><circle cx="90" cy="80" r="0.8" fill="#F4EBDD" opacity=".55"/><circle cx="18" cy="84" r="0.9" fill="#F4EBDD" opacity=".55"/><circle cx="73" cy="42" r="22" fill="url(#bh)"/><circle cx="73" cy="42" r="11" fill="#F2B544"/><path d="M26,62 a12,12 0 1,0 24,0 a12,12 0 1,0 -24,0 Z M39,52 a16,16 0 1,0 32,0 a16,16 0 1,0 -32,0 Z M61,61 a11,11 0 1,0 22,0 a11,11 0 1,0 -22,0 Z M33.5,61 H75.5 A7.5,7.5 0 0 1 83,68.5 V68.5 A7.5,7.5 0 0 1 75.5,76 H33.5 A7.5,7.5 0 0 1 26,68.5 V68.5 A7.5,7.5 0 0 1 33.5,61 Z" fill="#F4EBDD"/><path d="M33,70 L44,64 L52,68 L63,58 L73,54" fill="none" stroke="#E07A5F" stroke-width="4.2" stroke-linecap="round" stroke-linejoin="round"/><circle cx="73" cy="54" r="3.6" fill="#E07A5F" stroke="#F4EBDD" stroke-width="1.6"/></g><text x="360" y="196" font-family="Georgia,'Noto Serif',serif" font-size="92" fill="#F4EBDD">trad<tspan fill="#E07A5F" font-style="italic">IA</tspan><tspan fill="#F4EBDD" opacity=".75"> cloud</tspan></text><text x="364" y="252" font-family="system-ui,Roboto,sans-serif" font-size="26" letter-spacing="3" fill="#F4EBDD" opacity=".7">TU AGENTE CRIPTO, EN TU PROPIA NUBE</text><text x="364" y="300" font-family="system-ui,Roboto,sans-serif" font-size="21" fill="#8FB9A8">observa · razona con varias IAs · actúa con tus reglas</text></svg>
